<?xml version="1.0" encoding="UTF-8" standalone="no"?>
<svg width="287px" height="180px" viewBox="0 0 287 180" version="1.1" xmlns="http://www.w3.org/2000/svg" xmlns:xlink="http://www.w3.org/1999/xlink">
    <!-- Generator: Sketch 39.1 (31720) - http://www.bohemiancoding.com/sketch -->
    <title>Barcode_Dark</title>
    <desc>Created with Sketch.</desc>
    <defs></defs>
    <g id="Page-1" stroke="none" stroke-width="1" fill="none" fill-rule="evenodd">
        <g id="NewTicket_SelectMake" transform="translate(-397.000000, -481.000000)" fill="#1D1D1D">
            <g id="PlateCard" transform="translate(0.000000, 282.000000)">
                <path d="M449.594447,357.108404 C445.567597,357.108404 442.312621,353.839259 442.312621,349.811205 L442.312621,228.188795 C442.312621,224.160741 445.567597,220.891596 449.594447,220.891596 C453.621297,220.891596 456.876274,224.160741 456.876274,228.188795 L456.876274,349.811205 C456.876274,353.839259 453.621297,357.108404 449.594447,357.108404 Z M494.899058,335.216808 C490.872208,335.216808 487.617232,331.947663 487.617232,327.919609 L487.617232,250.080391 C487.617232,246.052337 490.872208,242.783192 494.899058,242.783192 C498.925908,242.783192 502.180884,246.052337 502.180884,250.080391 L502.180884,327.919609 C502.180884,331.947663 498.925908,335.216808 494.899058,335.216808 Z M404.281826,320.622411 C400.254976,320.622411 397,317.353265 397,313.325212 L397,264.674788 C397,260.646735 400.254976,257.377589 404.281826,257.377589 C408.308676,257.377589 411.563653,260.646735 411.563653,264.674788 L411.563653,313.325212 C411.563653,317.353265 408.308676,320.622411 404.281826,320.622411 Z M676.141531,320.622411 C672.114681,320.622411 668.859705,317.353265 668.859705,313.325212 L668.859705,264.674788 C668.859705,260.646735 672.114681,257.377589 676.141531,257.377589 C680.168381,257.377589 683.423358,260.646735 683.423358,264.674788 L683.423358,313.325212 C683.423358,317.353265 680.168381,320.622411 676.141531,320.622411 Z M540.211679,379 C536.184829,379 532.929852,375.730855 532.929852,371.702801 L532.929852,206.297199 C532.929852,202.269145 536.184829,199 540.211679,199 C544.238529,199 547.493505,202.269145 547.493505,206.297199 L547.493505,371.702801 C547.493505,375.730855 544.238529,379 540.211679,379 Z M585.523571,335.216808 C581.496722,335.216808 578.241745,331.947663 578.241745,327.919609 L578.241745,250.080391 C578.241745,246.052337 581.496722,242.783192 585.523571,242.783192 C589.550421,242.783192 592.805398,246.052337 592.805398,250.080391 L592.805398,327.919609 C592.805398,331.947663 589.550421,335.216808 585.523571,335.216808 Z M630.82891,357.108404 C626.802061,357.108404 623.547084,353.839259 623.547084,349.811205 L623.547084,228.188795 C623.547084,224.160741 626.802061,220.891596 630.82891,220.891596 C634.85576,220.891596 638.110737,224.160741 638.110737,228.188795 L638.110737,349.811205 C638.110737,353.839259 634.85576,357.108404 630.82891,357.108404 Z" id="Barcode_Dark"></path>
            </g>
        </g>
    </g>
</svg>