<?xml version="1.0" encoding="UTF-8" standalone="no"?>
<svg width="39px" height="60px" viewBox="0 0 39 60" version="1.1" xmlns="http://www.w3.org/2000/svg" xmlns:xlink="http://www.w3.org/1999/xlink">
    <!-- Generator: Sketch 39.1 (31720) - http://www.bohemiancoding.com/sketch -->
    <title>Bluetooth2</title>
    <desc>Created with Sketch.</desc>
    <defs></defs>
    <g id="Page-1" stroke="none" stroke-width="1" fill="none" fill-rule="evenodd">
        <g id="DeviceSettings" transform="translate(-63.000000, -330.000000)">
            <g id="list" transform="translate(0.000000, 276.000000)">
                <g id="row">
                    <g id="Bluetooth2" transform="translate(48.000000, 48.000000)">
                        <rect id="bounds" x="0" y="0" width="72" height="72"></rect>
                        <path d="M54,23.1 L36.496063,6 L33.4251969,6 L33.4251969,28.8 L19.2992126,15 L15,19.2 L32.1968504,36 L15,52.8 L19.2992126,57 L33.4251969,43.2 L33.4251969,66 L36.496063,66 L54,48.9 L40.7952756,36 L54,23.1 L54,23.1 Z M39,18 L45,24 L39,30 L39,18 L39,18 Z M45,48 L39,54 L39,42 L45,48 L45,48 Z" id="Shape" fill="#000000" opacity="0.539999962"></path>
                    </g>
                </g>
            </g>
        </g>
    </g>
</svg>