<?xml version="1.0" encoding="UTF-8" standalone="no"?>
<svg width="55px" height="50px" viewBox="0 0 55 50" version="1.1" xmlns="http://www.w3.org/2000/svg" xmlns:xlink="http://www.w3.org/1999/xlink">
    <!-- Generator: Sketch 39.1 (31720) - http://www.bohemiancoding.com/sketch -->
    <title>Camera_White</title>
    <desc>Created with Sketch.</desc>
    <defs></defs>
    <g id="Page-1" stroke="none" stroke-width="1" fill="none" fill-rule="evenodd">
        <g id="Recent" transform="translate(-861.000000, -129.000000)">
            <g id="app-bar">
                <g id="Camera_White" transform="translate(852.000000, 120.000000)">
                    <polygon id="Shape" transform="translate(36.000000, 36.000000) scale(1, -1) translate(-36.000000, -36.000000) " points="72 0 0 0 0 72 72 72"></polygon>
                    <g id="Page-1" transform="translate(9.000000, 9.000000)" fill="#FFFFFF">
                        <path d="M27.5,18 C32.7457813,18 37,22.478125 37,28 C37,33.521875 32.7457813,38 27.5,38 C22.2542188,38 18,33.521875 18,28 C18,22.478125 22.2542188,18 27.5,18" id="Fill-1"></path>
                        <path d="M27.5,41.6666667 C19.91,41.6666667 13.75,35.4444444 13.75,27.7777778 C13.75,20.1111111 19.91,13.8888889 27.5,13.8888889 C35.09,13.8888889 41.25,20.1111111 41.25,27.7777778 C41.25,35.4444444 35.09,41.6666667 27.5,41.6666667 L27.5,41.6666667 Z M19.25,0 L14.2175,5.55555556 L5.5,5.55555556 C2.475,5.55555556 0,8.05555556 0,11.1111111 L0,44.4444444 C0,47.5 2.475,50 5.5,50 L49.5,50 C52.525,50 55,47.5 55,44.4444444 L55,11.1111111 C55,8.05555556 52.525,5.55555556 49.5,5.55555556 L40.7825,5.55555556 L35.75,0 L19.25,0 Z" id="Fill-3"></path>
                    </g>
                </g>
            </g>
        </g>
    </g>
</svg>