<?xml version="1.0" encoding="UTF-8" standalone="no"?>
<svg width="29px" height="37px" viewBox="0 0 29 37" version="1.1" xmlns="http://www.w3.org/2000/svg" xmlns:xlink="http://www.w3.org/1999/xlink">
    <!-- Generator: Sketch 39.1 (31720) - http://www.bohemiancoding.com/sketch -->
    <title>Location</title>
    <desc>Created with Sketch.</desc>
    <defs></defs>
    <g id="Page-1" stroke="none" stroke-width="1" fill="none" fill-rule="evenodd">
        <g id="NewTicket" transform="translate(-344.000000, -745.000000)" fill="#47438F">
            <g id="PlateCard" transform="translate(0.000000, 282.000000)">
                <g id="Info" transform="translate(344.000000, 462.000000)">
                    <g id="Location">
                        <path d="M28.13,15.09 C28.13,7.31 21.833,1 14.064,1 C6.297,1 0,7.31 0,15.09 C0,16.125 0.11,17.13 0.32,18.1 L0.311,18.103 C2.02,25.806 6.489,32.464 12.626,36.986 C13.03,37.29 13.534,37.47 14.079,37.47 C14.515,37.47 14.925,37.353 15.279,37.152 C15.432,37.04 15.584,36.927 15.735,36.815 C21.701,32.335 26.063,25.816 27.779,18.274 L27.769,18.272 C28.006,17.249 28.13,16.184 28.13,15.09 L28.13,15.09 Z M14.064,8.634 C17.624,8.634 20.509,11.525 20.509,15.09 C20.509,18.655 17.624,21.545 14.064,21.545 C10.506,21.545 7.62,18.655 7.62,15.09 C7.62,11.525 10.506,8.634 14.064,8.634 L14.064,8.634 Z"></path>
                    </g>
                </g>
            </g>
        </g>
    </g>
</svg>