<?xml version="1.0" encoding="UTF-8" standalone="no"?>
<svg width="182px" height="243px" viewBox="0 0 182 243" version="1.1" xmlns="http://www.w3.org/2000/svg" xmlns:xlink="http://www.w3.org/1999/xlink">
    <!-- Generator: Sketch 39.1 (31720) - http://www.bohemiancoding.com/sketch -->
    <title>MR_LogoPurple</title>
    <desc>Created with Sketch.</desc>
    <defs></defs>
    <g id="Page-1" stroke="none" stroke-width="1" fill="none" fill-rule="evenodd">
        <g id="Login_Cursor" transform="translate(-451.000000, -390.000000)" fill="#474493">
            <g id="MR_LogoPurple" transform="translate(451.000000, 390.000000)">
                <g id="Page-1">
                    <g id="LogoMark">
                        <path d="M141.41975,164.403278 L141.401672,164.403278 C111.012429,185.198907 70.9378566,185.198907 40.5531326,164.403278 C21.9462742,135.331792 11,108.452168 11,91.2374824 C11,47.2739627 46.464663,11.5006105 90.5164115,11.03157 C90.755946,11.03157 90.9954805,11.02255 91.2304955,11 C135.381673,11.3653103 170.986441,47.1792526 171,91.2374824 C171,108.452168 160.049206,135.331792 141.41975,164.403278 M123.185102,189.253849 L123.167043,189.253849 C113.681716,202.23635 102.905192,214.215306 91,225 L91,194.253406 C103.713318,194.271569 116.182844,190.720567 127,184 C125.799097,185.743715 124.512415,187.49197 123.185102,189.253849 M155.217829,26.8060265 L155.208787,26.8060265 C138.187407,9.73284446 115.09891,0.094976642 90.9931993,0 L90.3828709,0 C40.286213,0.542723669 -0.0316280395,41.3419755 1.86175247e-05,91.4579836 C1.86175247e-05,115.012191 16.2709213,149.086192 37.5013071,180.134508 C53.9168802,204.150031 73.2891552,228.27862 90.3873919,242.452754 L90.9931993,243 C108.240627,228.893707 127.879639,204.439483 144.494133,180.143554 C165.724519,149.095237 181.999943,115.030282 181.999943,91.467029 C182.027069,67.207281 172.388401,43.9380037 155.217829,26.8060265" id="Fill-1"></path>
                        <path d="M130.156355,77.6404599 C129.60705,77.8725681 129.017222,77.9954489 128.422892,78 L128.413887,77.9817954 L109.696981,77.9817954 C105.356567,77.9817954 104.019324,76.4526121 105.244005,72.2610112 L111.290867,57.1057117 C111.497982,56.2182392 110.957681,55.3307667 110.079693,55.1214142 C109.543895,54.9894311 108.981082,55.1441699 108.58036,55.5264658 L79.8228712,76.7029248 C78.971898,77.5221302 77.8372672,77.9817954 76.6621138,77.9817954 L50.5836148,77.9817954 C48.0351979,77.9635909 45.9865589,75.8655149 46.0000664,73.2895691 C46.0045689,72.6706139 46.130639,72.0562099 46.3737742,71.4873172 C53.6047945,53.8152368 70.5702269,42.2143784 89.4852432,42.0004748 C108.521827,41.9140031 125.658355,53.6468446 132.64624,71.5510332 C133.623283,73.9267288 132.506662,76.6528623 130.156355,77.6404599 L130.156355,77.6404599 Z M97,91.4888129 C96.9956357,95.6359331 93.6395112,99 89.5021821,99 C85.3561245,99 82,95.6359331 82,91.4844383 C82,91.2088386 82.0523713,90.9463626 82.0829212,90.6751374 C82.1352924,90.1851823 82.2356706,89.7127256 82.3753273,89.2577673 C82.3840559,89.2227705 82.3927844,89.1921483 82.4058772,89.1615261 C82.5368054,88.7371899 82.7113762,88.3391014 82.9164969,87.9541366 C82.9514111,87.8928923 82.981961,87.8316479 83.0168752,87.7704035 C83.2132674,87.4248101 83.4358452,87.1010898 83.6846087,86.7904932 C83.7457085,86.716125 83.8068083,86.6373822 83.8722723,86.5630141 C84.1123072,86.2874143 84.3741635,86.0293129 84.6534769,85.78871 C84.7451266,85.7143418 84.8367763,85.635599 84.9327902,85.5612308 C85.203375,85.35125 85.4957812,85.1587677 85.7925516,84.9881583 C85.9147512,84.9137901 86.0413151,84.8437965 86.167879,84.7825521 C86.4602851,84.6381903 86.7614198,84.511327 87.0669188,84.4063366 C87.2283969,84.3494668 87.3898749,84.2969716 87.5513529,84.2532256 C87.8481234,84.1744828 88.1536223,84.1132384 88.4634856,84.073867 C88.6511493,84.0432448 88.8431772,84.0257464 89.0352051,84.0126226 C89.3450684,83.9951242 89.6636602,83.9951242 89.982252,84.0169972 C90.1306372,84.0257464 90.2702939,84.0432448 90.4143148,84.0607432 C91.2173407,84.161359 91.9810882,84.3713398 92.6837358,84.6994347 C92.7273785,84.7213077 92.7710212,84.7519299 92.8190282,84.7738029 C94.2985161,85.5131102 95.503055,86.716125 96.2231597,88.212238 L96.2231597,88.212238 C96.5897585,88.9734183 96.8254292,89.8045922 96.9170788,90.679512 C96.9476287,90.9507372 97,91.2088386 97,91.4844383 L97,91.4888129 Z M148.986537,86.3687952 L148.789085,84.1787157 C146.401705,52.9462766 120.557873,28.8735387 89.5578398,29.0004999 L89.2257607,29.0004999 C58.4949805,29.4539325 33.0460533,53.2410078 30.2099182,84.1605783 L30.0169533,86.3551922 C29.8015506,88.8944149 31.6638862,91.1343721 34.1724297,91.3520197 C34.3025688,91.3610884 34.4327079,91.3656227 34.562847,91.3656227 L74.5963297,91.3656227 C74.5918421,91.5379271 74.5514541,91.6920942 74.5469666,91.8598643 C74.5379915,100.212093 81.2289367,106.990911 89.4905264,106.99998 C97.7566037,107.013583 104.465499,100.248368 104.478962,91.9006732 L104.478962,91.814521 C104.474474,91.6603539 104.434086,91.5197898 104.429599,91.3656227 L144.436156,91.3656227 C146.958162,91.3656227 149,89.3025043 149,86.7542129 C149,86.6272518 148.995512,86.4957564 148.986537,86.3687952 L148.986537,86.3687952 Z" id="Fill-4"></path>
                        <path d="M117.262885,123.54899 C116.31207,122.243533 114.387692,121.895131 112.972842,122.776629 C99.3930106,131.314567 81.5049382,131.209627 68.0433904,122.51218 C67.5293131,122.176371 66.9151498,121.995874 66.2827892,122.000072 C65.0999563,122.033652 64.0308574,122.659096 63.4940333,123.637139 C62.5432176,125.253219 62.9981533,127.272269 64.5722309,128.401426 C80.1082856,138.416923 100.730522,138.542851 116.398508,128.712049 C117.990783,127.595485 118.463916,125.576435 117.508551,123.956158 C117.44031,123.813439 117.358422,123.679115 117.262885,123.54899" id="Fill-6"></path>
                        <path d="M110.419288,116.543042 C111.986506,115.438761 112.45622,113.457671 111.521309,111.857083 C111.449045,111.716463 111.363232,111.579979 111.268386,111.451766 C110.315409,110.169642 108.409454,109.838771 107.009345,110.711443 C97.3440785,116.762244 84.5940557,116.683662 75.0191184,110.51292 C74.5087561,110.173778 73.8945149,109.995935 73.2622077,110.000071 C72.0924394,110.029022 71.0265501,110.645269 70.498122,111.60893 C69.5451447,113.201246 69.9922762,115.190607 71.5594948,116.307297 C83.184914,123.809794 98.6809565,123.904919 110.419288,116.543042" id="Fill-8"></path>
                    </g>
                </g>
            </g>
        </g>
    </g>
</svg>