<?xml version="1.0" encoding="UTF-8" standalone="no"?>
<svg width="182px" height="243px" viewBox="0 0 182 243" version="1.1" xmlns="http://www.w3.org/2000/svg" xmlns:xlink="http://www.w3.org/1999/xlink">
    <!-- Generator: Sketch 39.1 (31720) - http://www.bohemiancoding.com/sketch -->
    <title>MR_LogoMark</title>
    <desc>Created with Sketch.</desc>
    <defs></defs>
    <g id="Page-1" stroke="none" stroke-width="1" fill="none" fill-rule="evenodd">
        <g id="Loader" transform="translate(-450.000000, -686.000000)" fill="#FFFFFF">
            <g id="MR_Logo" transform="translate(268.000000, 686.000000)">
                <g id="Page-1">
                    <g id="MR_LogoMark" transform="translate(181.000000, 0.000000)">
                        <path d="M142.41975,164.403278 L142.401672,164.403278 C112.012429,185.198907 71.9378566,185.198907 41.5531326,164.403278 C22.9462742,135.331792 12,108.452168 12,91.2374824 C12,47.2739627 47.464663,11.5006105 91.5164115,11.03157 C91.755946,11.03157 91.9954805,11.02255 92.2304955,11 C136.381673,11.3653103 171.986441,47.1792526 172,91.2374824 C172,108.452168 161.049206,135.331792 142.41975,164.403278 M124.185102,189.253849 L124.167043,189.253849 C114.681716,202.23635 103.905192,214.215306 92,225 L92,194.253406 C104.713318,194.271569 117.182844,190.720567 128,184 C126.799097,185.743715 125.512415,187.49197 124.185102,189.253849 M156.217829,26.8060265 L156.208787,26.8060265 C139.187407,9.73284446 116.09891,0.094976642 91.9931993,-7.44904138e-15 L91.3828709,-7.44904138e-15 C41.286213,0.542723669 0.968371961,41.3419755 1.00001862,91.4579836 C1.00001862,115.012191 17.2709213,149.086192 38.5013071,180.134508 C54.9168802,204.150031 74.2891552,228.27862 91.3873919,242.452754 L91.9931993,243 C109.240627,228.893707 128.879639,204.439483 145.494133,180.143554 C166.724519,149.095237 182.999943,115.030282 182.999943,91.467029 C183.027069,67.207281 173.388401,43.9380037 156.217829,26.8060265" id="Fill-1"></path>
                        <path d="M131.156355,77.6404599 C130.60705,77.8725681 130.017222,77.9954489 129.422892,78 L129.413887,77.9817954 L110.696981,77.9817954 C106.356567,77.9817954 105.019324,76.4526121 106.244005,72.2610112 L112.290867,57.1057117 C112.497982,56.2182392 111.957681,55.3307667 111.079693,55.1214142 C110.543895,54.9894311 109.981082,55.1441699 109.58036,55.5264658 L80.8228712,76.7029248 C79.971898,77.5221302 78.8372672,77.9817954 77.6621138,77.9817954 L51.5836148,77.9817954 C49.0351979,77.9635909 46.9865589,75.8655149 47.0000664,73.2895691 C47.0045689,72.6706139 47.130639,72.0562099 47.3737742,71.4873172 C54.6047945,53.8152368 71.5702269,42.2143784 90.4852432,42.0004748 C109.521827,41.9140031 126.658355,53.6468446 133.64624,71.5510332 C134.623283,73.9267288 133.506662,76.6528623 131.156355,77.6404599 L131.156355,77.6404599 Z M98,91.4888129 C97.9956357,95.6359331 94.6395112,99 90.5021821,99 C86.3561245,99 83,95.6359331 83,91.4844383 C83,91.2088386 83.0523713,90.9463626 83.0829212,90.6751374 C83.1352924,90.1851823 83.2356706,89.7127256 83.3753273,89.2577673 C83.3840559,89.2227705 83.3927844,89.1921483 83.4058772,89.1615261 C83.5368054,88.7371899 83.7113762,88.3391014 83.9164969,87.9541366 C83.9514111,87.8928923 83.981961,87.8316479 84.0168752,87.7704035 C84.2132674,87.4248101 84.4358452,87.1010898 84.6846087,86.7904932 C84.7457085,86.716125 84.8068083,86.6373822 84.8722723,86.5630141 C85.1123072,86.2874143 85.3741635,86.0293129 85.6534769,85.78871 C85.7451266,85.7143418 85.8367763,85.635599 85.9327902,85.5612308 C86.203375,85.35125 86.4957812,85.1587677 86.7925516,84.9881583 C86.9147512,84.9137901 87.0413151,84.8437965 87.167879,84.7825521 C87.4602851,84.6381903 87.7614198,84.511327 88.0669188,84.4063366 C88.2283969,84.3494668 88.3898749,84.2969716 88.5513529,84.2532256 C88.8481234,84.1744828 89.1536223,84.1132384 89.4634856,84.073867 C89.6511493,84.0432448 89.8431772,84.0257464 90.0352051,84.0126226 C90.3450684,83.9951242 90.6636602,83.9951242 90.982252,84.0169972 C91.1306372,84.0257464 91.2702939,84.0432448 91.4143148,84.0607432 C92.2173407,84.161359 92.9810882,84.3713398 93.6837358,84.6994347 C93.7273785,84.7213077 93.7710212,84.7519299 93.8190282,84.7738029 C95.2985161,85.5131102 96.503055,86.716125 97.2231597,88.212238 L97.2231597,88.212238 C97.5897585,88.9734183 97.8254292,89.8045922 97.9170788,90.679512 C97.9476287,90.9507372 98,91.2088386 98,91.4844383 L98,91.4888129 Z M149.986537,86.3687952 L149.789085,84.1787157 C147.401705,52.9462766 121.557873,28.8735387 90.5578398,29.0004999 L90.2257607,29.0004999 C59.4949805,29.4539325 34.0460533,53.2410078 31.2099182,84.1605783 L31.0169533,86.3551922 C30.8015506,88.8944149 32.6638862,91.1343721 35.1724297,91.3520197 C35.3025688,91.3610884 35.4327079,91.3656227 35.562847,91.3656227 L75.5963297,91.3656227 C75.5918421,91.5379271 75.5514541,91.6920942 75.5469666,91.8598643 C75.5379915,100.212093 82.2289367,106.990911 90.4905264,106.99998 C98.7566037,107.013583 105.465499,100.248368 105.478962,91.9006732 L105.478962,91.814521 C105.474474,91.6603539 105.434086,91.5197898 105.429599,91.3656227 L145.436156,91.3656227 C147.958162,91.3656227 150,89.3025043 150,86.7542129 C150,86.6272518 149.995512,86.4957564 149.986537,86.3687952 L149.986537,86.3687952 Z" id="Fill-4"></path>
                        <path d="M118.262885,123.54899 C117.31207,122.243533 115.387692,121.895131 113.972842,122.776629 C100.393011,131.314567 82.5049382,131.209627 69.0433904,122.51218 C68.5293131,122.176371 67.9151498,121.995874 67.2827892,122.000072 C66.0999563,122.033652 65.0308574,122.659096 64.4940333,123.637139 C63.5432176,125.253219 63.9981533,127.272269 65.5722309,128.401426 C81.1082856,138.416923 101.730522,138.542851 117.398508,128.712049 C118.990783,127.595485 119.463916,125.576435 118.508551,123.956158 C118.44031,123.813439 118.358422,123.679115 118.262885,123.54899" id="Fill-6"></path>
                        <path d="M111.419288,116.543042 C112.986506,115.438761 113.45622,113.457671 112.521309,111.857083 C112.449045,111.716463 112.363232,111.579979 112.268386,111.451766 C111.315409,110.169642 109.409454,109.838771 108.009345,110.711443 C98.3440785,116.762244 85.5940557,116.683662 76.0191184,110.51292 C75.5087561,110.173778 74.8945149,109.995935 74.2622077,110.000071 C73.0924394,110.029022 72.0265501,110.645269 71.498122,111.60893 C70.5451447,113.201246 70.9922762,115.190607 72.5594948,116.307297 C84.184914,123.809794 99.6809565,123.904919 111.419288,116.543042" id="Fill-8"></path>
                    </g>
                </g>
            </g>
        </g>
    </g>
</svg>