<?xml version="1.0" encoding="UTF-8" standalone="no"?>
<svg width="60px" height="60px" viewBox="0 0 60 60" version="1.1" xmlns="http://www.w3.org/2000/svg" xmlns:xlink="http://www.w3.org/1999/xlink">
    <!-- Generator: Sketch 39.1 (31720) - http://www.bohemiancoding.com/sketch -->
    <title>NewTicket</title>
    <desc>Created with Sketch.</desc>
    <defs></defs>
    <g id="Page-1" stroke="none" stroke-width="1" fill="none" fill-rule="evenodd">
        <g id="NewTicket" transform="translate(-870.000000, -280.000000)">
            <g id="Action-Bar---4-Tabs" transform="translate(0.000000, 239.000000)">
                <g id="New" transform="translate(720.000000, 36.000000)">
                    <g id="NewTicket" transform="translate(144.000000, 0.000000)">
                        <rect id="Rectangle" fill-opacity="0" fill="#D8D8D8" x="0" y="0" width="72" height="72"></rect>
                        <path d="M52,37.8 L38.8,37.8 L38.8,51 L32.2,51 L32.2,37.8 L19,37.8 L19,31.2 L32.2,31.2 L32.2,18 L38.8,18 L38.8,31.2 L52,31.2 L52,37.8 Z M59.3333333,5 L12.6666667,5 C8.96666667,5 6,8 6,11.6666667 L6,58.3333333 C6,62 8.96666667,65 12.6666667,65 L59.3333333,65 C63,65 66,62 66,58.3333333 L66,11.6666667 C66,8 63,5 59.3333333,5 L59.3333333,5 Z" id="Page-1" fill="#FFFFFF"></path>
                    </g>
                </g>
            </g>
        </g>
    </g>
</svg>