<?xml version="1.0" encoding="UTF-8" standalone="no"?>
<svg width="70px" height="59px" viewBox="0 0 70 59" version="1.1" xmlns="http://www.w3.org/2000/svg" xmlns:xlink="http://www.w3.org/1999/xlink">
    <!-- Generator: Sketch 39.1 (31720) - http://www.bohemiancoding.com/sketch -->
    <title>RecentSearch</title>
    <desc>Created with Sketch.</desc>
    <defs></defs>
    <g id="Page-1" stroke="none" stroke-width="1" fill="none" fill-rule="evenodd">
        <g id="Search" transform="translate(-49.000000, -486.000000)">
            <g id="list" transform="translate(0.000000, 443.000000)">
                <g id="row">
                    <g id="RecentSearch" transform="translate(48.000000, 36.000000)">
                        <rect id="Rectangle" fill-opacity="0" fill="#D8D8D8" x="0" y="0" width="72" height="72"></rect>
                        <path d="M37,23 L37,38.9151194 L50.696,47 L53,43.1485411 L41.8,36.5278515 L41.8,23 L37,23 Z M41,7 C24.4333333,7 11,20.2094444 11,36.5 L1,36.5 L13.9666667,49.2505556 L14.2,49.7094444 L27.6666667,36.5 L17.6666667,36.5 C17.6666667,23.815 28.1,13.5555556 41,13.5555556 C53.9,13.5555556 64.3333333,23.815 64.3333333,36.5 C64.3333333,49.185 53.9,59.4444444 41,59.4444444 C34.5666667,59.4444444 28.7333333,56.855 24.5333333,52.6922222 L19.8,57.3466667 C25.2333333,62.6894444 32.7,66 41,66 C57.5666667,66 71,52.7905556 71,36.5 C71,20.2094444 57.5666667,7 41,7 L41,7 Z" id="Page-1" fill="#474493"></path>
                    </g>
                </g>
            </g>
        </g>
    </g>
</svg>