<?xml version="1.0" encoding="UTF-8" standalone="no"?>
<svg width="54px" height="58px" viewBox="0 0 54 58" version="1.1" xmlns="http://www.w3.org/2000/svg" xmlns:xlink="http://www.w3.org/1999/xlink">
    <!-- Generator: Sketch 39.1 (31720) - http://www.bohemiancoding.com/sketch -->
    <title>RecentTickets</title>
    <desc>Created with Sketch.</desc>
    <defs></defs>
    <g id="Page-1" stroke="none" stroke-width="1" fill="none" fill-rule="evenodd">
        <g id="NewTicket" transform="translate(-513.000000, -282.000000)">
            <g id="Action-Bar---4-Tabs" transform="translate(0.000000, 239.000000)">
                <g id="Recent" transform="translate(360.000000, 36.000000)">
                    <g id="RecentTickets" transform="translate(144.000000, 0.000000)">
                        <rect id="Rectangle" fill-opacity="0" fill="#D8D8D8" x="0" y="0" width="72" height="72"></rect>
                        <path d="M62.2638889,7 L57.900463,11.3471 L53.537037,7 L49.1736111,11.3471 L44.8101852,7 L40.4467593,11.3471 L36.0833333,7 L31.7199074,11.3471 L27.3564815,7 L22.9930556,11.3471 L18.6296296,7 L14.2662037,11.3471 L9.90277778,7 L9.90277778,65 L14.2662037,60.6471 L18.6296296,65 L22.9930556,60.6471 L27.3564815,65 L31.7199074,60.6471 L36.0833333,65 L40.4467593,60.6471 L44.8101852,65 L49.1736111,60.6471 L53.537037,65 L57.900463,60.6471 L62.2638889,65 L62.2638889,7 Z M18.7638889,27.9444444 L53.4027778,27.9444444 L53.4027778,22.3055556 L18.7638889,22.3055556 L18.7638889,27.9444444 Z M18.7638889,39.2222222 L53.4027778,39.2222222 L53.4027778,33.5833333 L18.7638889,33.5833333 L18.7638889,39.2222222 Z M18.7638889,50.5 L53.4027778,50.5 L53.4027778,44.8611111 L18.7638889,44.8611111 L18.7638889,50.5 Z" id="Icon" fill="#FFFFFF"></path>
                    </g>
                </g>
            </g>
        </g>
    </g>
</svg>