<?xml version="1.0" encoding="UTF-8" standalone="no"?>
<svg width="54px" height="54px" viewBox="0 0 54 54" version="1.1" xmlns="http://www.w3.org/2000/svg" xmlns:xlink="http://www.w3.org/1999/xlink">
    <!-- Generator: Sketch 39.1 (31720) - http://www.bohemiancoding.com/sketch -->
    <title>Scan_Dark</title>
    <desc>Created with Sketch.</desc>
    <defs></defs>
    <g id="Page-1" stroke="none" stroke-width="1" fill="none" fill-rule="evenodd">
        <g id="DeviceSettings" transform="translate(-57.000000, -669.000000)">
            <g id="list" transform="translate(0.000000, 276.000000)">
                <g id="row-copy" transform="translate(0.000000, 336.000000)">
                    <g id="Scan_Dark" transform="translate(48.000000, 48.000000)">
                        <rect id="bounds" x="0" y="0" width="72" height="72"></rect>
                        <path d="M56.8032787,56.8032787 L44.4098361,56.8032787 L44.4098361,63 L56.8032787,63 C60.2114754,63 63,60.2114754 63,56.8032787 L63,44.4098361 L56.8032787,44.4098361 L56.8032787,56.8032787 Z M56.8032787,9 L44.4098361,9 L44.4098361,15.1967213 L56.8032787,15.1967213 L56.8032787,27.5901639 L63,27.5901639 L63,15.1967213 C63,11.7885246 60.2114754,9 56.8032787,9 L56.8032787,9 Z M15.1967213,15.1967213 L27.5901639,15.1967213 L27.5901639,9 L15.1967213,9 C11.7885246,9 9,11.7885246 9,15.1967213 L9,27.5901639 L15.1967213,27.5901639 L15.1967213,15.1967213 Z M15.1967213,44.4098361 L9,44.4098361 L9,56.8032787 C9,60.2114754 11.7885246,63 15.1967213,63 L27.5901639,63 L27.5901639,56.8032787 L15.1967213,56.8032787 L15.1967213,44.4098361 Z M36.442623,24.0491803 C29.5952459,24.0491803 24.0491803,29.5952459 24.0491803,36.442623 C24.0491803,43.29 29.5952459,48.8360656 36.442623,48.8360656 C43.29,48.8360656 48.8360656,43.29 48.8360656,36.442623 C48.8360656,29.5952459 43.29,24.0491803 36.442623,24.0491803 L36.442623,24.0491803 Z" id="Scan" fill="#000000" opacity="0.539999962"></path>
                    </g>
                </g>
            </g>
        </g>
    </g>
</svg>