<?xml version="1.0" encoding="UTF-8" standalone="no"?>
<svg width="53px" height="53px" viewBox="0 0 53 53" version="1.1" xmlns="http://www.w3.org/2000/svg" xmlns:xlink="http://www.w3.org/1999/xlink">
    <!-- Generator: Sketch 39.1 (31720) - http://www.bohemiancoding.com/sketch -->
    <title>search_purple</title>
    <desc>Created with Sketch.</desc>
    <defs></defs>
    <g id="Page-1" stroke="none" stroke-width="1" fill="none" fill-rule="evenodd">
        <g id="Home" transform="translate(-59.000000, -439.000000)">
            <g id="Search" transform="translate(48.000000, 407.000000)">
                <g id="search_purple" transform="translate(36.500000, 59.000000) scale(1, -1) translate(-36.500000, -59.000000) translate(0.000000, 23.000000)">
                    <polygon id="bounds" points="72.7997 0 0.7997 0 0.7997 72 72.7997 72"></polygon>
                    <path d="M48.5,30 L46.1,30 L45.2,30.9 C48.2,34.2 50,38.7 50,43.5 C50,54.3 41.3,63 30.5,63 C19.7,63 11,54.3 11,43.5 C11,32.7 19.7,24 30.5,24 C35.3,24 39.8,25.8 43.1,28.8 L44,27.9 L44,25.5 L59,10.5 L63.5,15 L48.5,30 L48.5,30 Z M30.5,30 C23,30 17,36 17,43.5 C17,51 23,57 30.5,57 C38,57 44,51 44,43.5 C44,36 38,30 30.5,30 L30.5,30 Z" id="Shape" fill="#3C3882" opacity="0.87"></path>
                </g>
            </g>
        </g>
    </g>
</svg>