<?xml version="1.0" encoding="UTF-8" standalone="no"?>
<svg width="544px" height="362px" viewBox="0 0 544 362" version="1.1" xmlns="http://www.w3.org/2000/svg" xmlns:xlink="http://www.w3.org/1999/xlink">
    <!-- Generator: Sketch 39.1 (31720) - http://www.bohemiancoding.com/sketch -->
    <title>MR_Logo</title>
    <desc>Created with Sketch.</desc>
    <defs></defs>
    <g id="Page-1" stroke="none" stroke-width="1" fill="none" fill-rule="evenodd">
        <g id="Loader" transform="translate(-268.000000, -686.000000)">
            <g id="MR_Logo" transform="translate(268.000000, 686.000000)">
                <g id="Page-1">
                    <g id="LogoMark" transform="translate(181.000000, 0.000000)" fill="#FFFFFF">
                        <path d="M142.41975,164.403278 L142.401672,164.403278 C112.012429,185.198907 71.9378566,185.198907 41.5531326,164.403278 C22.9462742,135.331792 12,108.452168 12,91.2374824 C12,47.2739627 47.464663,11.5006105 91.5164115,11.03157 C91.755946,11.03157 91.9954805,11.02255 92.2304955,11 C136.381673,11.3653103 171.986441,47.1792526 172,91.2374824 C172,108.452168 161.049206,135.331792 142.41975,164.403278 M124.185102,189.253849 L124.167043,189.253849 C114.681716,202.23635 103.905192,214.215306 92,225 L92,194.253406 C104.713318,194.271569 117.182844,190.720567 128,184 C126.799097,185.743715 125.512415,187.49197 124.185102,189.253849 M156.217829,26.8060265 L156.208787,26.8060265 C139.187407,9.73284446 116.09891,0.094976642 91.9931993,-7.44904138e-15 L91.3828709,-7.44904138e-15 C41.286213,0.542723669 0.968371961,41.3419755 1.00001862,91.4579836 C1.00001862,115.012191 17.2709213,149.086192 38.5013071,180.134508 C54.9168802,204.150031 74.2891552,228.27862 91.3873919,242.452754 L91.9931993,243 C109.240627,228.893707 128.879639,204.439483 145.494133,180.143554 C166.724519,149.095237 182.999943,115.030282 182.999943,91.467029 C183.027069,67.207281 173.388401,43.9380037 156.217829,26.8060265" id="Fill-1"></path>
                        <path d="M131.156355,77.6404599 C130.60705,77.8725681 130.017222,77.9954489 129.422892,78 L129.413887,77.9817954 L110.696981,77.9817954 C106.356567,77.9817954 105.019324,76.4526121 106.244005,72.2610112 L112.290867,57.1057117 C112.497982,56.2182392 111.957681,55.3307667 111.079693,55.1214142 C110.543895,54.9894311 109.981082,55.1441699 109.58036,55.5264658 L80.8228712,76.7029248 C79.971898,77.5221302 78.8372672,77.9817954 77.6621138,77.9817954 L51.5836148,77.9817954 C49.0351979,77.9635909 46.9865589,75.8655149 47.0000664,73.2895691 C47.0045689,72.6706139 47.130639,72.0562099 47.3737742,71.4873172 C54.6047945,53.8152368 71.5702269,42.2143784 90.4852432,42.0004748 C109.521827,41.9140031 126.658355,53.6468446 133.64624,71.5510332 C134.623283,73.9267288 133.506662,76.6528623 131.156355,77.6404599 L131.156355,77.6404599 Z M98,91.4888129 C97.9956357,95.6359331 94.6395112,99 90.5021821,99 C86.3561245,99 83,95.6359331 83,91.4844383 C83,91.2088386 83.0523713,90.9463626 83.0829212,90.6751374 C83.1352924,90.1851823 83.2356706,89.7127256 83.3753273,89.2577673 C83.3840559,89.2227705 83.3927844,89.1921483 83.4058772,89.1615261 C83.5368054,88.7371899 83.7113762,88.3391014 83.9164969,87.9541366 C83.9514111,87.8928923 83.981961,87.8316479 84.0168752,87.7704035 C84.2132674,87.4248101 84.4358452,87.1010898 84.6846087,86.7904932 C84.7457085,86.716125 84.8068083,86.6373822 84.8722723,86.5630141 C85.1123072,86.2874143 85.3741635,86.0293129 85.6534769,85.78871 C85.7451266,85.7143418 85.8367763,85.635599 85.9327902,85.5612308 C86.203375,85.35125 86.4957812,85.1587677 86.7925516,84.9881583 C86.9147512,84.9137901 87.0413151,84.8437965 87.167879,84.7825521 C87.4602851,84.6381903 87.7614198,84.511327 88.0669188,84.4063366 C88.2283969,84.3494668 88.3898749,84.2969716 88.5513529,84.2532256 C88.8481234,84.1744828 89.1536223,84.1132384 89.4634856,84.073867 C89.6511493,84.0432448 89.8431772,84.0257464 90.0352051,84.0126226 C90.3450684,83.9951242 90.6636602,83.9951242 90.982252,84.0169972 C91.1306372,84.0257464 91.2702939,84.0432448 91.4143148,84.0607432 C92.2173407,84.161359 92.9810882,84.3713398 93.6837358,84.6994347 C93.7273785,84.7213077 93.7710212,84.7519299 93.8190282,84.7738029 C95.2985161,85.5131102 96.503055,86.716125 97.2231597,88.212238 L97.2231597,88.212238 C97.5897585,88.9734183 97.8254292,89.8045922 97.9170788,90.679512 C97.9476287,90.9507372 98,91.2088386 98,91.4844383 L98,91.4888129 Z M149.986537,86.3687952 L149.789085,84.1787157 C147.401705,52.9462766 121.557873,28.8735387 90.5578398,29.0004999 L90.2257607,29.0004999 C59.4949805,29.4539325 34.0460533,53.2410078 31.2099182,84.1605783 L31.0169533,86.3551922 C30.8015506,88.8944149 32.6638862,91.1343721 35.1724297,91.3520197 C35.3025688,91.3610884 35.4327079,91.3656227 35.562847,91.3656227 L75.5963297,91.3656227 C75.5918421,91.5379271 75.5514541,91.6920942 75.5469666,91.8598643 C75.5379915,100.212093 82.2289367,106.990911 90.4905264,106.99998 C98.7566037,107.013583 105.465499,100.248368 105.478962,91.9006732 L105.478962,91.814521 C105.474474,91.6603539 105.434086,91.5197898 105.429599,91.3656227 L145.436156,91.3656227 C147.958162,91.3656227 150,89.3025043 150,86.7542129 C150,86.6272518 149.995512,86.4957564 149.986537,86.3687952 L149.986537,86.3687952 Z" id="Fill-4"></path>
                        <path d="M118.262885,123.54899 C117.31207,122.243533 115.387692,121.895131 113.972842,122.776629 C100.393011,131.314567 82.5049382,131.209627 69.0433904,122.51218 C68.5293131,122.176371 67.9151498,121.995874 67.2827892,122.000072 C66.0999563,122.033652 65.0308574,122.659096 64.4940333,123.637139 C63.5432176,125.253219 63.9981533,127.272269 65.5722309,128.401426 C81.1082856,138.416923 101.730522,138.542851 117.398508,128.712049 C118.990783,127.595485 119.463916,125.576435 118.508551,123.956158 C118.44031,123.813439 118.358422,123.679115 118.262885,123.54899" id="Fill-6"></path>
                        <path d="M111.419288,116.543042 C112.986506,115.438761 113.45622,113.457671 112.521309,111.857083 C112.449045,111.716463 112.363232,111.579979 112.268386,111.451766 C111.315409,110.169642 109.409454,109.838771 108.009345,110.711443 C98.3440785,116.762244 85.5940557,116.683662 76.0191184,110.51292 C75.5087561,110.173778 74.8945149,109.995935 74.2622077,110.000071 C73.0924394,110.029022 72.0265501,110.645269 71.498122,111.60893 C70.5451447,113.201246 70.9922762,115.190607 72.5594948,116.307297 C84.184914,123.809794 99.6809565,123.904919 111.419288,116.543042" id="Fill-8"></path>
                    </g>
                    <g id="Name" transform="translate(0.000000, 284.000000)" fill="#FEFEFE">
                        <path d="M60.4728383,3.32420843 C58.2231966,3 56.0032758,3 54.9378967,3 C53.7536341,3 51.9635228,3 49.7115949,3.32420843 L49.009725,3.42537986 L36.9133283,40.5529938 C36.0468505,43.0270951 34.5059374,48.5570332 33.520576,52.3118727 C32.5237835,48.5064475 30.9211424,42.9420191 30.0912441,40.5782867 L17.9948475,3.45067272 L17.3204122,3.33110648 C15.4662868,3 13.3355286,3 12.0598171,3 C11.0127278,3 8.55961237,3 6.5088719,3.32650778 L5.61724562,3.46906752 L0,76.1653357 L0.882481403,76.4320604 C2.02559203,76.776963 3.69453354,77 5.13713915,77 C6.47686481,77 7.86231488,76.8873318 9.14717123,76.6711929 L10.0387975,76.5217351 L12.9925954,32.5926421 C13.164062,29.9759811 13.3035215,26.1199702 13.442981,22.1880807 C13.495564,20.7509865 13.5481471,19.304695 13.6030164,17.9043905 L28.7423736,65.3147003 L29.4030915,65.4457633 C30.2238449,65.6090172 31.8379172,65.8826399 33.4474169,65.8826399 C34.8785914,65.8826399 36.3806388,65.6642016 37.6632089,65.4526613 L38.3536477,65.3376938 L53.3581178,18.0607464 C53.5433017,23.2365845 53.7742101,29.0424448 54.0028322,32.5972408 L57.0617962,76.5102383 L57.937419,76.6688935 C59.1742647,76.8965292 60.3882481,77 61.7576947,77 C63.1271412,77 64.8669556,76.7746636 66.0877977,76.4412578 L67,76.1906286 L61.3781819,3.45527142 L60.4728383,3.32420843 Z" id="Fill-1"></path>
                        <path d="M106,45.7992925 L106,46 L83,46 C83.7945582,36.4467856 88.0087639,31 94.6722715,31 C104.528075,31 106,40.2717625 106,45.7992925 M94.3717286,22 C80.7831139,22 72,32.9697619 72,49.9469391 C72,68.036088 79.8332711,78 94.052769,78 C101.020628,78 108.483343,75.7391448 114.013539,71.9533657 L114.595171,71.5542556 L114.50605,70.864464 C114.280902,69.0742358 113.061351,66.3450606 111.24375,64.8132158 L110.631629,64.2964489 L109.921006,64.6771031 C104.456479,67.6069869 99.8901978,68.9150531 95.1128405,68.9150531 C87.2209371,68.9150531 83.2456692,64.0080745 82.6640371,53.4974046 L115.291722,53.4974046 L115.455893,52.5330807 C115.913224,49.8292824 116,47.9629233 116,45.4644476 C116,31.2095246 107.510047,22 94.3717286,22" id="Fill-3"></path>
                        <path d="M150.479997,23.0489268 L137.482224,23.2520194 L137.482224,8.30163859 L136.184517,7 L132.901136,7 C128.09686,7 127.694203,10.2887145 127.694203,13.3697207 L127.694203,23.1504731 L120.520003,23.0489268 L120.33363,23.9928456 C120.092036,25.2044773 120,26.0837757 120,27.1361643 C120,28.4378029 120.133452,29.3794138 120.33363,30.3879529 L120.520003,31.3295638 L127.694203,31.2280175 L127.694203,67.1869375 C127.694203,73.3327948 131.660952,77 138.305945,77 C142.281897,77 145.565279,76.8038311 148.956802,76.3653358 L149.561939,76.2845604 L149.835746,75.7399031 C150.169376,75.0775444 150.169376,74.2882529 150.169376,73.6535887 C150.169376,72.0450035 149.865657,70.3279483 149.35946,69.056312 L149.069547,68.329333 L140.385957,68.329333 C138.296742,68.329333 137.482224,67.424648 137.482224,65.102931 L137.482224,31.2210939 L150.479997,31.3249481 L150.66637,30.3879529 C150.866548,29.3794138 151,28.4378029 151,27.1361643 C151,26.0837757 150.907964,25.2044773 150.66637,23.9928456 L150.479997,23.0489268 Z" id="Fill-5"></path>
                        <path d="M189,45.7992925 L189,46 L166,46 C166.792295,36.4490926 171.009274,31 177.671117,31 C187.527925,31 189,40.2717625 189,45.7992925 M177.370536,22 C163.782646,22 155,32.9697619 155,49.9469391 C155,68.036088 162.832854,78 177.053939,78 C184.019081,78 191.481399,75.7391448 197.011299,71.9533657 L197.595246,71.5542556 L197.506129,70.862157 C197.278648,69.0719288 196.056817,66.3427536 194.244004,64.8132158 L193.62957,64.2964489 L192.918985,64.6771031 C187.457094,67.6069869 182.891056,68.9150531 178.111609,68.9150531 C170.222471,68.9150531 166.247415,64.0080745 165.663469,53.4974046 L198.289415,53.4974046 L198.453576,52.5330807 C198.913229,49.8246684 199,47.9583093 199,45.4644476 C199,31.2095246 190.5105,22 177.370536,22" id="Fill-7"></path>
                        <path d="M236.028419,22.6661462 C233.647816,22.2878123 231.895748,22.2321067 231.064609,22.2321067 C225.281171,22.2321067 220.522268,24.8572333 217.416433,29.6896945 C215.965969,26.0340142 213.447226,23.4692353 210.028275,22.1996117 L209.489532,22 L209.008346,22.311023 C207.373696,23.3694294 205.697604,25.5930115 205.191093,27.3755908 L205,28.0533423 L205.508814,28.5361242 C207.145766,30.0958812 208.89323,33.5032073 208.89323,38.3913741 L208.89323,76.47776 L209.818764,76.6634453 C210.921577,76.8862677 212.328297,77 213.999784,77 C215.489388,77 216.89841,76.8816256 217.971293,76.6634453 L218.896827,76.47776 L218.896827,40.8493839 C220.745593,36.8548278 224.231312,32.2103731 230.438377,32.2103731 C231.534283,32.2173363 232.768329,32.2103731 233.983956,32.3125 L234.679258,32.3705267 L235.052234,31.7740125 C236.270163,29.8289585 237,26.8533508 237,23.8127532 L237,22.8216577 L236.028419,22.6661462 Z" id="Fill-9"></path>
                        <path d="M262,38 C265.694248,37.7923725 269.701648,37.6873922 271.707703,37.6873922 C280.887992,37.6873922 283,32.1444366 283,26.3938533 C283,20.5406228 280.887992,15.1049802 271.707703,15.1049802 C269.176589,15.1049802 265.272788,15.1049802 262,15 L262,38 Z M283.665513,45.7586804 C287.38639,47.1021448 289.868512,50.6200827 291.314879,54.8605367 L295.141869,65.3104742 C296.175317,68.2074637 297.72549,71.0005771 300,72.8611138 C298.242215,75.3449072 294.417532,77 290.800461,77 C285.732411,77 283.976932,74.2068866 282.011534,68.828412 L277.670127,56.5179379 C276.117647,52.3790516 274.05075,49.068866 268.055363,49.068866 L261.748558,49.068866 L261.748558,76.1712994 C259.476355,76.5868039 256.788927,76.6883716 254.823529,76.6883716 C253.065744,76.6883716 250.170704,76.5868039 248,76.1712994 L248,6.03414446 L248.724337,5.41319611 C256.991926,5.20544388 264.851211,5 272.292964,5 C286.66436,5 296.590542,12.1374435 296.590542,26.8255266 C296.590542,36.6545157 290.385236,43.3787631 283.665513,45.7586804 L283.665513,45.7586804 Z" id="Fill-11"></path>
                        <path d="M317,44 L334,44 L334,42.7791225 C334,36.8812405 331.645873,32 325.60285,32 C320.071793,32 317.409115,36.2708018 317,44 L317,44 Z M317.932632,54.9080572 C318.353416,62.0448003 320.658378,67.2937143 328.618213,67.2937143 C333.648921,67.2937143 338.361704,65.7197428 342.761237,63.7265139 C344.858145,65.8251427 346.221018,69.2892854 346.637127,72.0179712 C341.400701,75.7983136 333.856976,78 326.523643,78 C308.923175,78 304,64.7758283 304,50.7107998 C304,34.9640576 311.020083,23 326.628839,23 C340.353416,23 348,32.6546291 348,45.2510859 C348,49.3452858 347.684412,51.6547142 346.847519,54.9080572 L317.932632,54.9080572 Z" id="Fill-13"></path>
                        <path d="M382,63.4024979 L382,54.3124063 C379.498884,54.1049126 376.799197,54 374.797858,54 C369.599286,54 367,57.0308077 367,61.8358035 C367,65.2839301 369.001339,68 372.600178,68 C375.601071,68 379.099509,66.4333056 382,63.4024979 M394.46875,77.3790716 C389.629596,76.8620159 386.539062,74.5860477 384.68704,71.4814055 C381.081801,74.9992306 376.141544,78 369.44807,78 C359.045956,78 354,69.9302385 354,62.4837138 C354,50.3790716 363.267004,45.0007694 374.080423,45.0007694 C376.449449,45.0007694 379.641085,45.0007694 382.731618,45.3100795 L382.731618,42.5170557 C382.731618,37.1387535 380.15579,34.6550398 375.112132,34.6550398 C370.374081,34.6550398 364.813419,36.4139523 359.457261,38.2767376 C357.501838,36.1046422 356.265625,32.0697615 355.957721,28.6558092 C362.340993,25.9666581 371.711397,24 378.508272,24 C387.982077,24 396.116268,29.068992 396.116268,41.4829443 L396.116268,62.6891511 C396.116268,66.1031034 396.840074,68.6883816 399,70.3434214 C398.384191,72.8271352 396.32307,76.0333419 394.46875,77.3790716" id="Fill-15"></path>
                        <path d="M435,60.887574 L435,36.9634277 C432.218391,35.2250659 429.333333,34 426.655172,34 C421.298851,34 418,39.9291367 418,50.7653811 C418,61.6039068 421.505747,66 425.728736,66 C428.510345,66 432.114943,64.6699936 435,60.887574 M424.858344,23.9191336 C428.708823,23.9191336 432.154583,25.1676534 435.193364,26.7271429 L435.193364,0.726369343 L435.901057,0 L440.970214,0 C446.340084,0 448.162448,2.39260956 448.162448,8.42402785 L448.162448,61.6717741 C448.162448,65.4150129 449.075891,68.742852 451,70.3046622 C450.495797,72.7993812 448.467682,76.0251108 446.643057,77.3757401 C442.084886,76.9603404 438.942099,74.6721609 437.119735,71.2398917 C433.673974,75.1919907 428.607078,78 422.83249,78 C410.874072,78 405,67.0812532 405,51.3749665 C405,33.1762816 414.421578,23.9191336 424.858344,23.9191336" id="Fill-18"></path>
                        <path d="M472,44 L489,44 L489,42.7791225 C489,36.8812405 486.645873,32 480.60285,32 C475.071793,32 472.409115,36.2708018 472,44 L472,44 Z M472.932632,54.9080572 C473.353416,62.0448003 475.658378,67.2937143 483.618213,67.2937143 C488.648921,67.2937143 493.361704,65.7197428 497.761237,63.7265139 C499.858145,65.8251427 501.221018,69.2892854 501.637127,72.0179712 C496.400701,75.7983136 488.856976,78 481.523643,78 C463.923175,78 459,64.7758283 459,50.7107998 C459,34.9640576 466.020083,23 481.628839,23 C495.353416,23 503,32.6546291 503,45.2510859 C503,49.3452858 502.684412,51.6547142 501.847519,54.9080572 L472.932632,54.9080572 Z" id="Fill-21"></path>
                        <path d="M513.323313,24 C519.089262,24.7295603 522.794631,28.1636053 524.751838,33.3727588 C527.014571,28.0613739 531.03006,24.1045548 537.825151,24.1045548 C540.398005,24.1045548 542.047388,24.3136645 544,24.8341151 C544,28.1636053 542.973156,33.7886546 540.708125,37.536364 C539.164413,37.0159134 537.51503,36.9113586 535.971318,36.8068037 C531.340181,36.8068037 528.457207,39.5159353 526.293253,43.2636447 L526.293253,76.4795493 C524.441717,76.7908904 521.868863,77 519.498162,77 C517.235429,77 514.765949,76.7908904 512.808742,76.4795493 L512.808742,41.8068476 C512.808742,35.9750121 510.647086,32.5386436 509,31.079523 C509.514571,28.6863794 511.46948,25.3545658 513.323313,24" id="Fill-23"></path>
                    </g>
                </g>
            </g>
        </g>
    </g>
</svg>