<?xml version="1.0" encoding="UTF-8" standalone="no"?>
<svg width="128px" height="116px" viewBox="0 0 128 116" version="1.1" xmlns="http://www.w3.org/2000/svg" xmlns:xlink="http://www.w3.org/1999/xlink">
    <!-- Generator: Sketch 39.1 (31720) - http://www.bohemiancoding.com/sketch -->
    <title>AddImage</title>
    <desc>Created with Sketch.</desc>
    <defs></defs>
    <g id="Page-1" stroke="none" stroke-width="1" fill="none" fill-rule="evenodd">
        <g id="NewTicket" transform="translate(-150.000000, -2800.000000)" fill="#F6FCFF">
            <g id="AddPhotos" transform="translate(48.000000, 2587.000000)">
                <g id="Image1" transform="translate(0.000000, 97.000000)">
                    <path d="M156.53913,187.809524 C156.53913,197.586667 164.497391,205.485714 174.347826,205.485714 C184.198261,205.485714 192.156522,197.586667 192.156522,187.809524 C192.156522,178.032381 184.198261,170.133333 174.347826,170.133333 C164.497391,170.133333 156.53913,178.032381 156.53913,187.809524 L156.53913,187.809524 Z M174.347826,215.428571 C189.707826,215.428571 202.173913,203.055238 202.173913,187.809524 C202.173913,172.56381 189.707826,160.190476 174.347826,160.190476 C158.987826,160.190476 146.521739,172.56381 146.521739,187.809524 C146.521739,203.055238 158.987826,215.428571 174.347826,215.428571 L174.347826,215.428571 Z M135.391304,165.714286 L135.391304,149.142857 L152.086957,149.142857 L152.086957,132.571429 L191.043478,132.571429 L201.227826,143.619048 L218.869565,143.619048 C224.991304,143.619048 230,148.590476 230,154.666667 L230,220.952381 C230,227.028571 224.991304,232 218.869565,232 L129.826087,232 C123.704348,232 118.695652,227.028571 118.695652,220.952381 L118.695652,165.714286 L135.391304,165.714286 Z M118.695652,132.571429 L118.695652,116 L129.826087,116 L129.826087,132.571429 L146.521739,132.571429 L146.521739,143.619048 L129.826087,143.619048 L129.826087,160.190476 L118.695652,160.190476 L118.695652,143.619048 L102,143.619048 L102,132.571429 L118.695652,132.571429 Z" id="AddImage"></path>
                </g>
            </g>
        </g>
    </g>
</svg>