<?xml version="1.0" encoding="UTF-8" standalone="no"?>
<svg width="218px" height="137px" viewBox="0 0 218 137" version="1.1" xmlns="http://www.w3.org/2000/svg" xmlns:xlink="http://www.w3.org/1999/xlink">
    <!-- Generator: Sketch 39.1 (31720) - http://www.bohemiancoding.com/sketch -->
    <title>Barcode_White</title>
    <desc>Created with Sketch.</desc>
    <defs></defs>
    <g id="Page-1" stroke="none" stroke-width="1" fill="none" fill-rule="evenodd">
        <g id="VinScan" transform="translate(-431.000000, -816.000000)" fill="#FFFFFF">
            <path d="M471.030218,936.338063 C467.965338,936.338063 465.487939,933.84988 465.487939,930.784084 L465.487939,838.215916 C465.487939,835.15012 467.965338,832.661937 471.030218,832.661937 C474.095098,832.661937 476.572497,835.15012 476.572497,838.215916 L476.572497,930.784084 C476.572497,933.84988 474.095098,936.338063 471.030218,936.338063 Z M505.512061,919.676126 C502.447181,919.676126 499.969782,917.187943 499.969782,914.122147 L499.969782,854.877853 C499.969782,851.812057 502.447181,849.323874 505.512061,849.323874 C508.576941,849.323874 511.05434,851.812057 511.05434,854.877853 L511.05434,914.122147 C511.05434,917.187943 508.576941,919.676126 505.512061,919.676126 Z M436.542279,908.568168 C433.477399,908.568168 431,906.079985 431,903.014189 L431,865.985811 C431,862.920015 433.477399,860.431832 436.542279,860.431832 C439.607159,860.431832 442.084558,862.920015 442.084558,865.985811 L442.084558,903.014189 C442.084558,906.079985 439.607159,908.568168 436.542279,908.568168 Z M643.457721,908.568168 C640.392841,908.568168 637.915442,906.079985 637.915442,903.014189 L637.915442,865.985811 C637.915442,862.920015 640.392841,860.431832 643.457721,860.431832 C646.522601,860.431832 649,862.920015 649,865.985811 L649,903.014189 C649,906.079985 646.522601,908.568168 643.457721,908.568168 Z M540,953 C536.93512,953 534.457721,950.511817 534.457721,947.446021 L534.457721,821.553979 C534.457721,818.488183 536.93512,816 540,816 C543.06488,816 545.542279,818.488183 545.542279,821.553979 L545.542279,947.446021 C545.542279,950.511817 543.06488,953 540,953 Z M574.487385,919.676126 C571.422505,919.676126 568.945106,917.187943 568.945106,914.122147 L568.945106,854.877853 C568.945106,851.812057 571.422505,849.323874 574.487385,849.323874 C577.552265,849.323874 580.029664,851.812057 580.029664,854.877853 L580.029664,914.122147 C580.029664,917.187943 577.552265,919.676126 574.487385,919.676126 Z M608.969782,936.338063 C605.904902,936.338063 603.427503,933.84988 603.427503,930.784084 L603.427503,838.215916 C603.427503,835.15012 605.904902,832.661937 608.969782,832.661937 C612.034662,832.661937 614.512061,835.15012 614.512061,838.215916 L614.512061,930.784084 C614.512061,933.84988 612.034662,936.338063 608.969782,936.338063 Z" id="Barcode_White"></path>
        </g>
    </g>
</svg>