<?xml version="1.0" encoding="UTF-8" standalone="no"?>
<svg width="46px" height="62px" viewBox="0 0 46 62" version="1.1" xmlns="http://www.w3.org/2000/svg" xmlns:xlink="http://www.w3.org/1999/xlink">
    <!-- Generator: Sketch 39.1 (31720) - http://www.bohemiancoding.com/sketch -->
    <title>Bluetooth_Dark</title>
    <desc>Created with Sketch.</desc>
    <defs></defs>
    <g id="Page-1" stroke="none" stroke-width="1" fill="none" fill-rule="evenodd" fill-opacity="0.9">
        <g id="Login" transform="translate(-551.000000, -1762.000000)" fill="#474493">
            <g id="Info" transform="translate(126.000000, 1762.000000)">
                <g id="BT" transform="translate(425.000000, 0.000000)">
                    <g id="Bluetooth_Dark">
                        <path d="M35,20.5030372 C35,19.9128708 34.7506187,19.3548223 34.3175845,18.9734222 L22.4226768,8.48090564 C21.8465866,7.9690266 21.0404471,7.85661395 20.3599648,8.1878298 C19.6756161,8.51503091 19.2387156,9.22764682 19.2387156,10.0085133 L19.2387156,22.0306449 C19.2387156,23.1387124 20.1028508,24.0380137 21.1719039,24.0380137 C22.2390239,24.0380137 23.1050922,23.1387124 23.1050922,22.0306449 L23.1050922,14.3504519 L30.0819689,20.5030372 L21.1661043,28.3679081 L11.185053,19.5635886 C10.3731139,18.846958 9.1513389,18.9513412 8.45925748,19.7924287 C7.76910924,20.6375309 7.86770185,21.9041806 8.68157413,22.6228187 L18.1812616,30.9995686 L8.68157413,39.3803332 C7.86770185,40.0989712 7.76910924,41.3656209 8.45925748,42.2087158 C8.84202876,42.6764327 9.38718787,42.917317 9.93428017,42.917317 C10.3769803,42.917317 10.8216136,42.7607422 11.185053,42.4395632 L21.1661043,33.6332364 L30.0819689,41.5001146 L23.1050922,47.6526999 L23.1050922,39.972507 C23.1050922,38.8624321 22.2390239,37.9651382 21.1719039,37.9651382 C20.1028508,37.9651382 19.2387156,38.8624321 19.2387156,39.972507 L19.2387156,51.9946386 C19.2387156,52.775505 19.6756161,53.488121 20.3599648,53.8153221 C20.619012,53.9397789 20.895458,54 21.1719039,54 C21.6204036,54 22.0669701,53.8374031 22.4226768,53.5222462 L34.3175845,43.0297296 C34.7506187,42.6483296 35,42.0902811 35,41.5001146 C35,40.9119556 34.7506187,40.3518997 34.3175845,39.9704996 L24.1509471,30.9995686 L34.3175845,22.0326522 C34.7506187,21.6512522 35,21.0932037 35,20.5030372" id="Fill-1"></path>
                        <path d="M42.0250594,41.0648315 C42.0250594,50.4098919 34.4468352,58.0123489 25.1315619,58.0123489 L20.8684381,58.0123489 C11.5531648,58.0123489 3.97494059,50.4098919 3.97494059,41.0648315 L3.97494059,20.9351685 C3.97494059,11.5921019 11.5531648,3.98765114 20.8684381,3.98765114 L25.1315619,3.98765114 C34.4468352,3.98765114 42.0250594,11.5921019 42.0250594,20.9351685 L42.0250594,41.0648315 Z M25.1315619,0 L20.8684381,0 C9.36098509,0 0,9.39091845 0,20.9351685 L0,41.0648315 C0,52.6090816 9.36098509,62 20.8684381,62 L25.1315619,62 C36.6390149,62 46,52.6090816 46,41.0648315 L46,20.9351685 C46,9.39091845 36.6390149,0 25.1315619,0 L25.1315619,0 Z" id="Fill-3"></path>
                    </g>
                </g>
            </g>
        </g>
    </g>
</svg>