<?xml version="1.0" encoding="UTF-8" standalone="no"?>
<svg width="56px" height="56px" viewBox="0 0 56 56" version="1.1" xmlns="http://www.w3.org/2000/svg" xmlns:xlink="http://www.w3.org/1999/xlink">
    <!-- Generator: Sketch 39.1 (31720) - http://www.bohemiancoding.com/sketch -->
    <title>Help</title>
    <desc>Created with Sketch.</desc>
    <defs></defs>
    <g id="Page-1" stroke="none" stroke-width="1" fill="none" fill-rule="evenodd">
        <g id="DeviceSettings" transform="translate(-968.000000, -128.000000)">
            <g id="app-bar">
                <g id="Help" transform="translate(960.000000, 120.000000)">
                    <rect id="bounds" x="0" y="0" width="72" height="72"></rect>
                    <path d="M36,18.7234043 C29.7461702,18.7234043 24.6808511,23.6998582 24.6808511,29.8439716 L30.3404255,29.8439716 C30.3404255,26.7858156 32.887234,24.2836879 36,24.2836879 C39.112766,24.2836879 41.6595745,26.7858156 41.6595745,29.8439716 C41.6595745,35.4042553 33.1702128,34.7092199 33.1702128,43.7446809 L38.8297872,43.7446809 C38.8297872,37.4893617 47.3191489,36.7943262 47.3191489,29.8439716 C47.3191489,23.6998582 42.2538298,18.7234043 36,18.7234043 L36,18.7234043 Z M36.2585307,59.2340426 C23.5932798,59.2340426 13.2830189,48.9237816 13.2830189,36.2585307 C13.2830189,23.5932798 23.5932798,13.2830189 36.2585307,13.2830189 C48.9237816,13.2830189 59.2340426,23.5932798 59.2340426,36.2585307 C59.2340426,48.9237816 48.9237816,59.2340426 36.2585307,59.2340426 L36.2585307,59.2340426 Z M36,8 C20.544,8 8,20.544 8,36 C8,51.456 20.544,64 36,64 C51.456,64 64,51.456 64,36 C64,20.544 51.456,8 36,8 L36,8 Z M33.0212766,53.2765957 L38.9787234,53.2765957 L38.9787234,47.3191489 L33.0212766,47.3191489 L33.0212766,53.2765957 Z" id="Page-1" fill="#FFFFFF"></path>
                </g>
            </g>
        </g>
    </g>
</svg>