<?xml version="1.0" encoding="UTF-8" standalone="no"?>
<svg width="12px" height="48px" viewBox="0 0 12 48" version="1.1" xmlns="http://www.w3.org/2000/svg" xmlns:xlink="http://www.w3.org/1999/xlink">
    <!-- Generator: Sketch 39.1 (31720) - http://www.bohemiancoding.com/sketch -->
    <title>more</title>
    <desc>Created with Sketch.</desc>
    <defs></defs>
    <g id="Page-1" stroke="none" stroke-width="1" fill="none" fill-rule="evenodd">
        <g id="Recent" transform="translate(-1008.000000, -132.000000)">
            <g id="app-bar">
                <g id="more" transform="translate(996.000000, 120.000000)">
                    <path d="M18,48 C21.3,48 24,50.7 24,54 C24,57.3 21.3,60 18,60 C14.7,60 12,57.3 12,54 C12,50.7 14.7,48 18,48 L18,48 Z M18,42 C14.7,42 12,39.3 12,36 C12,32.7 14.7,30 18,30 C21.3,30 24,32.7 24,36 C24,39.3 21.3,42 18,42 L18,42 Z M18,24 C14.7,24 12,21.3 12,18 C12,14.7 14.7,12 18,12 C21.3,12 24,14.7 24,18 C24,21.3 21.3,24 18,24 L18,24 Z" id="Shape" fill="#FFFFFF" transform="translate(18.000000, 36.000000) scale(1, -1) translate(-18.000000, -36.000000) "></path>
                    <polygon id="Shape" transform="translate(18.000000, 36.000000) scale(1, -1) translate(-18.000000, -36.000000) " points="36 0 0 0 0 72 36 72"></polygon>
                </g>
            </g>
        </g>
    </g>
</svg>