<?xml version="1.0" encoding="UTF-8" standalone="no"?>
<svg width="60px" height="54px" viewBox="0 0 60 54" version="1.1" xmlns="http://www.w3.org/2000/svg" xmlns:xlink="http://www.w3.org/1999/xlink">
    <!-- Generator: Sketch 39.1 (31720) - http://www.bohemiancoding.com/sketch -->
    <title>Printer2</title>
    <desc>Created with Sketch.</desc>
    <defs></defs>
    <g id="Page-1" stroke="none" stroke-width="1" fill="none" fill-rule="evenodd">
        <g id="DeviceSettings" transform="translate(-54.000000, -501.000000)">
            <g id="list" transform="translate(0.000000, 276.000000)">
                <g id="row" transform="translate(0.000000, 168.000000)">
                    <g id="Printer2" transform="translate(48.000000, 48.000000)">
                        <rect id="bounds" x="0" y="0" width="72" height="72"></rect>
                        <path d="M57,48 L15,48 C9.9,48 6,44.1 6,39 L6,21 L18,21 L18,9 L54,9 L54,21 L66,21 L66,39 C66,44.1 62.1,48 57,48 L57,48 Z M48,15 L24,15 L24,30 L48,30 L48,15 L48,15 Z M57,36 C55.2,36 54,37.2 54,39 C54,40.8 55.2,42 57,42 C58.8,42 60,40.8 60,39 C60,37.2 58.8,36 57,36 L57,36 Z M54,63 L18,63 L18,51 L54,51 L54,63 L54,63 Z" id="Shape" fill="#000000" opacity="0.539999962"></path>
                    </g>
                </g>
            </g>
        </g>
    </g>
</svg>