<?xml version="1.0" encoding="UTF-8" standalone="no"?>
<svg width="59px" height="56px" viewBox="0 0 59 56" version="1.1" xmlns="http://www.w3.org/2000/svg" xmlns:xlink="http://www.w3.org/1999/xlink">
    <!-- Generator: Sketch 39.1 (31720) - http://www.bohemiancoding.com/sketch -->
    <title>Printer_White</title>
    <desc>Created with Sketch.</desc>
    <defs></defs>
    <g id="Page-1" stroke="none" stroke-width="1" fill="none" fill-rule="evenodd">
        <g id="TitleScreen" transform="translate(-126.000000, -756.000000)" fill="#FFFFFF">
            <g id="Info" transform="translate(126.000000, 754.000000)">
                <g id="Printer" transform="translate(0.000000, 2.000000)">
                    <g id="Printer_White">
                        <path d="M22.7876651,49 L37.2123349,49 C38.199126,49 39,48.106 39,47 C39,45.894 38.199126,45 37.2123349,45 L22.7876651,45 C21.800874,45 21,45.894 21,47 C21,48.106 21.800874,49 22.7876651,49" id="Fill-1"></path>
                        <path d="M55.1977186,30.7287143 C55.1977186,32.3080526 53.9296578,33.591382 52.3688213,33.591382 L6.63307985,33.591382 C5.07224335,33.591382 3.80228137,32.3080526 3.80228137,30.7287143 L3.80228137,14.1035094 C3.80228137,12.5241712 5.07224335,11.2408417 6.63307985,11.2408417 L15.0798479,11.2408417 L15.0798479,18.6691646 C15.0798479,19.7033221 15.9315589,20.5426383 16.9809886,20.5426383 L43.8574144,20.5426383 C44.9068441,20.5426383 45.7585551,19.7033221 45.7585551,18.6691646 L45.7585551,11.2408417 L52.3688213,11.2408417 C53.9296578,11.2408417 55.1977186,12.5241712 55.1977186,14.1035094 L55.1977186,30.7287143 Z M41.9562738,37.713024 L41.9562738,52.2530528 L18.8821293,52.2530528 L18.8821293,37.7148975 C18.8821293,37.5800074 18.8326996,37.463852 18.8060837,37.3383293 L42.0323194,37.3383293 C42.0057034,37.463852 41.9562738,37.5800074 41.9562738,37.713024 L41.9562738,37.713024 Z M18.8821293,3.74694724 L37.21673,3.74694724 L41.9562738,9.6090462 L41.9562738,16.795691 L18.8821293,16.795691 L18.8821293,3.74694724 Z M52.3688213,7.49389448 L45.0988593,7.49389448 C45.0418251,7.41895554 44.9923954,7.34026965 44.9277567,7.27095112 L39.8992395,1.04914523 C39.8536122,0.992941019 39.8041825,0.938610284 39.7509506,0.886153023 C39.1653992,0.314743568 38.3878327,0 37.5627376,0 L18.1939163,0 C16.4771863,0 15.0798479,1.37700311 15.0798479,3.07062326 L15.0798479,7.49389448 L6.63307985,7.49389448 C2.97528517,7.49389448 0,10.4596032 0,14.1035094 L0,30.7287143 C0,34.3726205 2.97528517,37.3383293 6.63307985,37.3383293 L15.1577947,37.3383293 C15.1311787,37.463852 15.0798479,37.5800074 15.0798479,37.7148975 L15.0798479,52.9087685 C15.0798479,54.6136295 16.4619772,56 18.161597,56 L42.6768061,56 C44.3764259,56 45.7585551,54.6136295 45.7585551,52.9087685 L45.7585551,37.713024 C45.7585551,37.5800074 45.7072243,37.463852 45.6806084,37.3383293 L52.3688213,37.3383293 C56.026616,37.3383293 59,34.3726205 59,30.7287143 L59,14.1035094 C59,10.4596032 56.026616,7.49389448 52.3688213,7.49389448 L52.3688213,7.49389448 Z" id="Fill-3"></path>
                        <path d="M46.58,25.5489405 C46.22,25.9323915 46,26.457114 46,26.9818365 C46,27.5267407 46.22,28.0312815 46.58,28.4147326 C46.96,28.7981837 47.48,29 48,29 C48.52,29 49.04,28.7981837 49.42,28.4147326 C49.78,28.0312815 50,27.5085772 50,26.9818365 C50,26.457114 49.78,25.9323915 49.42,25.5711403 C48.66,24.80222 47.3,24.8244198 46.58,25.5489405" id="Fill-6"></path>
                    </g>
                </g>
            </g>
        </g>
    </g>
</svg>