<?xml version="1.0" encoding="UTF-8" standalone="no"?>
<svg width="56px" height="56px" viewBox="0 0 56 56" version="1.1" xmlns="http://www.w3.org/2000/svg" xmlns:xlink="http://www.w3.org/1999/xlink">
    <!-- Generator: Sketch 39.1 (31720) - http://www.bohemiancoding.com/sketch -->
    <title>Puzzle</title>
    <desc>Created with Sketch.</desc>
    <defs></defs>
    <g id="Page-1" stroke="none" stroke-width="1" fill="none" fill-rule="evenodd">
        <g id="DeviceSettings" transform="translate(-58.000000, -835.000000)">
            <g id="list" transform="translate(0.000000, 276.000000)">
                <g id="row" transform="translate(0.000000, 504.000000)">
                    <g id="Puzzle" transform="translate(48.000000, 48.000000)">
                        <rect id="bounds" x="0" y="0" width="72" height="72"></rect>
                        <path d="M59.3333333,33.6666667 L55.3333333,33.6666667 L55.3333333,23 C55.3333333,20.0666667 52.9333333,17.6666667 50,17.6666667 L39.3333333,17.6666667 L39.3333333,13.6666667 C39.3333333,9.98666667 36.3466667,7 32.6666667,7 C28.9866667,7 26,9.98666667 26,13.6666667 L26,17.6666667 L15.3333333,17.6666667 C12.4,17.6666667 10.0266667,20.0666667 10.0266667,23 L10.0266667,33.1333333 L14,33.1333333 C17.9733333,33.1333333 21.2,36.36 21.2,40.3333333 C21.2,44.3066667 17.9733333,47.5333333 14,47.5333333 L10,47.5333333 L10,57.6666667 C10,60.6 12.4,63 15.3333333,63 L25.4666667,63 L25.4666667,59 C25.4666667,55.0266667 28.6933333,51.8 32.6666667,51.8 C36.64,51.8 39.8666667,55.0266667 39.8666667,59 L39.8666667,63 L50,63 C52.9333333,63 55.3333333,60.6 55.3333333,57.6666667 L55.3333333,47 L59.3333333,47 C63.0133333,47 66,44.0133333 66,40.3333333 C66,36.6533333 63.0133333,33.6666667 59.3333333,33.6666667" id="Page-1" fill="#000000" opacity="0.539999962"></path>
                    </g>
                </g>
            </g>
        </g>
    </g>
</svg>