<?xml version="1.0" encoding="UTF-8" standalone="no"?>
<svg width="116px" height="128px" viewBox="0 0 116 128" version="1.1" xmlns="http://www.w3.org/2000/svg" xmlns:xlink="http://www.w3.org/1999/xlink">
    <!-- Generator: Sketch 39.1 (31720) - http://www.bohemiancoding.com/sketch -->
    <title>SadTicket</title>
    <desc>Created with Sketch.</desc>
    <defs>
        <circle id="path-1" cx="39" cy="43" r="11"></circle>
        <mask id="mask-2" maskContentUnits="userSpaceOnUse" maskUnits="objectBoundingBox" x="0" y="0" width="22" height="22" fill="white">
            <use xlink:href="#path-1"></use>
        </mask>
        <circle id="path-3" cx="76" cy="43" r="11"></circle>
        <mask id="mask-4" maskContentUnits="userSpaceOnUse" maskUnits="objectBoundingBox" x="0" y="0" width="22" height="22" fill="white">
            <use xlink:href="#path-3"></use>
        </mask>
    </defs>
    <g id="Page-1" stroke="none" stroke-width="1" fill="none" fill-rule="evenodd">
        <g id="Recent" transform="translate(-482.000000, -804.000000)">
            <g id="SadTicket" transform="translate(482.000000, 804.000000)">
                <polygon id="Icon" fill="#C7CDD1" points="115.555556 0 105.925926 9.5936 96.2962963 0 86.6666667 9.5936 77.037037 0 67.4074074 9.5936 57.7777778 0 48.1481481 9.5936 38.5185185 0 28.8888889 9.5936 19.2592593 0 9.62962963 9.5936 5.68434189e-14 0 5.68434189e-14 128 9.62962963 118.3936 19.2592593 128 28.8888889 118.3936 38.5185185 128 48.1481481 118.3936 57.7777778 128 67.4074074 118.3936 77.037037 128 86.6666667 118.3936 96.2962963 128 105.925926 118.3936 115.555556 128"></polygon>
                <use id="Oval" stroke="#F1F5F7" mask="url(#mask-2)" stroke-width="22" xlink:href="#path-1"></use>
                <use id="Oval-Copy" stroke="#F1F5F7" mask="url(#mask-4)" stroke-width="22" xlink:href="#path-3"></use>
                <path d="M35.9786977,95.7396432 C35.4112619,95.7396432 34.8338712,95.640093 34.2664355,95.4310378 C31.6880872,94.4902891 30.3590929,91.6282229 31.3048192,89.0498746 C35.9836752,76.2626606 46.4015961,68 57.8399058,68 C69.273238,68 79.6911589,76.2626606 84.3700149,89.0498746 C85.3157411,91.6282229 83.9867469,94.4902891 81.4034211,95.4310378 C78.8250728,96.3717865 75.9630066,95.0527473 75.0222579,92.4694215 C71.7918562,83.6542576 65.047335,77.9550128 57.8399058,77.9550128 C50.627499,77.9550128 43.8829778,83.6542576 40.6525762,92.4694215 C39.9159052,94.4902891 38.0095203,95.7396432 35.9786977,95.7396432" id="Fill-1" fill="#F1F5F7"></path>
            </g>
        </g>
    </g>
</svg>