<?xml version="1.0" encoding="UTF-8" standalone="no"?>
<svg width="54px" height="54px" viewBox="0 0 54 54" version="1.1" xmlns="http://www.w3.org/2000/svg" xmlns:xlink="http://www.w3.org/1999/xlink">
    <!-- Generator: Sketch 39.1 (31720) - http://www.bohemiancoding.com/sketch -->
    <title>Scan_Purple</title>
    <desc>Created with Sketch.</desc>
    <defs></defs>
    <g id="Page-1" stroke="none" stroke-width="1" fill="none" fill-rule="evenodd" fill-opacity="0.9">
        <g id="NewTicket" transform="translate(-966.000000, -964.000000)" fill="#474493">
            <g id="Inputs" transform="translate(0.000000, 930.000000)">
                <g id="Plate/Vin" transform="translate(48.000000, 0.000000)">
                    <path d="M966,82 L953,82 L953,88 L966,88 C969.15,88 972,85.15 972,82 L972,69 L966,69 L966,82 Z M966,34 L953,34 L953,40 L966,40 L966,53 L972,53 L972,40 C972,36.85 969.15,34 966,34 L966,34 Z M924,40 L937,40 L937,34 L924,34 C920.85,34 918,36.85 918,40 L918,53 L924,53 L924,40 Z M924,69 L918,69 L918,82 C918,85.15 920.85,88 924,88 L937,88 L937,82 L924,82 L924,69 Z M946,49 C938.59375,49 933,54.59375 933,62 C933,68.40625 938.59375,74 946,74 C952.40625,74 958,68.40625 958,62 C958,54.59375 952.40625,49 946,49 L946,49 Z" id="Scan_Purple"></path>
                </g>
            </g>
        </g>
    </g>
</svg>